HIERARCHY
ROOT Hips
{
	OFFSET -0.179506 -22.333345 2.821913
	CHANNELS 6 Xposition Yposition Zposition Zrotation Yrotation Xrotation 
	JOINT LeftUpLeg
	{
		OFFSET 6.951974 -9.140623 -0.681533
		CHANNELS 3 Zrotation Yrotation Xrotation
		JOINT LeftLeg
		{
			OFFSET 3.427654 -37.519855 -0.449580
			CHANNELS 3 Zrotation Yrotation Xrotation
			JOINT LeftFoot
			{
				OFFSET -1.359570 -39.796059 -4.369333
				CHANNELS 3 Zrotation Yrotation Xrotation
				JOINT LeftToe
				{
					OFFSET 2.635814 -5.579078 11.928840
					CHANNELS 3 Zrotation Yrotation Xrotation
					End Site
					{
						OFFSET 0.000000 0.000000 0.000000
					}
				}
			}
		}
	}
	JOINT RightUpLeg
	{
		OFFSET -6.767048 -9.052170 -0.431982
		CHANNELS 3 Zrotation Yrotation Xrotation
		JOINT RightLeg
		{
			OFFSET -3.829005 -38.256897 -0.885003
			CHANNELS 3 Zrotation Yrotation Xrotation
			JOINT RightFoot
			{
				OFFSET 1.577377 -39.841461 -4.231180
				CHANNELS 3 Zrotation Yrotation Xrotation
				JOINT RightToe
				{
					OFFSET -2.537174 -4.814398 12.334795
					CHANNELS 3 Zrotation Yrotation Xrotation
					End Site
					{
						OFFSET 0.000000 0.000000 0.000000
					}
				}
			}
		}
	}
	JOINT Spine
	{
		OFFSET -0.253288 10.896323 -2.669631
		CHANNELS 3 Zrotation Yrotation Xrotation
		JOINT Spine1
		{
			OFFSET 0.548704 13.518043 0.109247
			CHANNELS 3 Zrotation Yrotation Xrotation
			JOINT Spine2
			{
				OFFSET 0.145701 5.292222 2.542457
				CHANNELS 3 Zrotation Yrotation Xrotation
				JOINT Neck
				{
					OFFSET -0.277840 21.387037 -4.285703
					CHANNELS 3 Zrotation Yrotation Xrotation
					JOINT Head
					{
						OFFSET 0.515184 6.496960 5.134897
						CHANNELS 3 Zrotation Yrotation Xrotation
						End Site
						{
							OFFSET 0.000000 0.000000 0.000000
						}
					}
				}
				JOINT LeftShoulder
				{
					OFFSET 7.884473 12.174932 -3.408961
					CHANNELS 3 Zrotation Yrotation Xrotation
					JOINT LeftArm
					{
						OFFSET 9.097692 3.046888 -0.886815
						CHANNELS 3 Zrotation Yrotation Xrotation
						JOINT LeftForeArm
						{
							OFFSET 25.961220 -1.277207 -2.745643
							CHANNELS 3 Zrotation Yrotation Xrotation
							JOINT LeftHand
							{
								OFFSET 24.923361 0.898606 -0.117091
								CHANNELS 3 Zrotation Yrotation Xrotation
								End Site
								{
									OFFSET 0.000000 0.000000 0.000000
								}
							}
						}
					}
				}
				JOINT RightShoulder
				{
					OFFSET -8.175920 11.883285 -3.861528
					CHANNELS 3 Zrotation Yrotation Xrotation
					JOINT RightArm
					{
						OFFSET -9.601238 3.255117 -0.914307
						CHANNELS 3 Zrotation Yrotation Xrotation
						JOINT RightForeArm
						{
							OFFSET -25.374195 -1.332924 -2.140099
							CHANNELS 3 Zrotation Yrotation Xrotation
							JOINT RightHand
							{
								OFFSET -25.529810 0.777228 -0.555919
								CHANNELS 3 Zrotation Yrotation Xrotation
								End Site
								{
									OFFSET 0.000000 0.000000 0.000000
								}
							}
						}
					}
				}
			}
		}
	}
}
MOTION
Frames: 7
Frame Time: 0.033333
-11.185056 -9.457384 91.288788 -176.341007 1.857097 85.812028 5.589347 14.269276 8.035784 -3.977993 21.695535 8.327808 6.639737 23.252779 -16.024502 nan nan nan -7.006192 -6.359832 -12.146274 -2.399119 -20.699509 41.259695 0.874236 -10.972046 -12.550032 nan nan nan -3.573193 -5.399369 5.976188 5.232438 -10.514439 7.009861 0.554458 -6.317594 -0.933752 1.268714 4.242443 24.166662 -6.459504 6.414693 8.500547 -3.903648 -9.475739 -2.369901 -47.028044 -25.845383 7.716790 61.255486 -63.884685 -48.233704 -6.488385 -16.604579 -18.760720 5.641368 18.862021 -15.824592 72.992877 34.075658 31.355635 -74.018005 74.438926 -58.907191 7.685093 6.702120 -15.741384 
-11.175842 -9.376163 91.303673 -177.568599 1.771655 85.975088 5.344086 13.929566 7.892531 -3.793455 21.502825 8.854017 6.627015 23.565658 -15.944759 nan nan nan -7.140960 -6.463697 -11.655520 -2.103873 -20.823208 41.385412 1.371750 -10.908007 -12.356176 nan nan nan -3.460329 -5.303537 5.664960 5.323252 -10.936290 6.446154 0.520585 -6.482085 -0.441529 0.407202 4.484229 24.256345 -6.551800 7.270777 8.412087 -4.178405 -9.462899 -2.168292 -46.259362 -25.187855 6.805188 61.256191 -63.312986 -48.424641 -6.467465 -16.282813 -18.154868 5.945432 18.776844 -15.809848 73.201556 33.539731 31.515342 -77.795570 76.246553 -62.869577 7.843472 6.837851 -16.084092 
-11.071006 -8.964113 91.213715 -179.757289 1.695156 86.125237 5.332748 13.746765 8.691120 -4.253653 21.827061 8.125926 6.425462 24.216157 -15.403867 nan nan nan -7.095254 -6.256241 -10.992567 -1.662077 -20.247480 40.946677 2.052987 -10.475604 -12.888207 nan nan nan -3.310645 -5.823132 4.742190 5.208404 -10.650011 7.072527 0.573003 -6.106179 -0.976795 -0.627979 4.936802 25.130542 -6.712795 8.318857 7.719326 -4.717263 -9.010666 -1.511275 -45.414112 -24.406250 6.226754 61.884442 -63.052993 -49.536036 -5.756946 -15.348588 -17.269836 6.232425 18.566288 -14.761264 73.581427 33.541888 31.906348 -83.093041 77.974430 -68.812863 7.462699 6.726966 -16.253549 
-11.029290 -8.777484 91.223511 178.660568 1.599140 86.363248 5.226013 13.767657 8.499450 -4.016509 22.045033 8.819270 6.233838 24.346069 -15.344684 nan nan nan -7.131238 -6.251783 -10.310402 -1.090228 -19.983659 39.959180 2.460490 -9.986657 -13.356508 nan nan nan -3.224617 -5.452189 4.226937 5.358969 -10.933073 6.901522 0.703294 -6.386100 -0.943817 -1.469213 5.214661 25.359507 -6.929735 9.276483 7.459363 -5.467606 -8.833497 -0.972639 -44.384267 -23.683546 5.388933 62.350691 -62.725266 -49.930415 -4.959664 -15.235986 -16.695371 6.570873 18.319008 -14.537616 73.634228 33.069400 32.102520 -89.157782 79.594689 -75.118185 7.051729 7.209429 -16.550646 
-11.012051 -8.883554 91.254822 177.813393 1.508417 86.557438 5.088695 13.708844 7.452294 -3.189929 22.311753 10.776542 6.041524 23.900565 -15.387940 nan nan nan -7.241064 -6.236840 -9.546963 -0.369436 -19.972952 38.233445 2.760787 -9.522732 -13.526718 nan nan nan -3.141519 -4.819102 4.503833 5.653944 -11.927501 6.363068 0.842360 -6.812807 -0.985520 -2.022677 5.486716 24.973041 -7.303175 10.054923 7.452648 -6.002185 -8.781267 -0.686169 -43.424228 -22.956268 4.612717 63.081479 -62.130316 -50.657181 -4.396384 -15.412767 -16.624741 6.809767 18.199811 -15.089246 73.679588 32.324026 32.559099 -95.901784 80.794483 -82.261712 6.489904 7.701374 -17.324681 
-10.601535 -8.772456 91.170532 175.603627 1.717495 86.801291 6.019852 14.139062 7.160815 -3.451766 22.632400 12.107082 5.650688 23.475332 -15.587298 nan nan nan -6.415936 -5.325015 -8.745119 0.045124 -19.522955 35.846382 3.050096 -8.793085 -14.012780 nan nan nan -3.017841 -5.132150 3.720792 5.479822 -11.597747 6.608783 0.800291 -6.712198 -0.551529 -1.160007 6.822363 24.386875 -7.998437 9.772178 8.164712 -5.522380 -8.821975 -0.941179 -43.274634 -21.289178 3.526321 63.901816 -62.012734 -50.957809 -4.647943 -15.861550 -16.267336 7.174948 18.791799 -15.304996 73.975045 31.415956 32.469891 -104.402957 81.866981 -90.151631 6.375393 8.567377 -17.743904 
-10.408359 -8.590451 91.071320 173.914418 1.869724 86.861369 6.493237 13.689433 7.100842 -3.627950 22.422973 13.261326 5.518482 23.624121 -15.718508 nan nan nan -6.060143 -5.001501 -7.436695 1.046372 -18.645839 32.802616 3.401989 -8.221522 -14.674286 nan nan nan -2.499596 -5.725866 3.455313 5.205066 -11.175999 6.602316 0.709426 -6.699375 -0.628705 -1.124526 7.561724 24.039022 -8.331704 10.119993 8.646214 -5.721965 -8.748958 -0.670825 -42.655840 -20.153918 2.822814 64.471774 -61.706152 -51.339872 -3.949069 -16.094296 -16.576528 7.589279 18.918492 -14.750123 74.183879 31.088461 32.496368 -115.042332 82.767460 -100.400580 5.722580 9.112747 -17.661564 
